<svg width="324" height="153" viewBox="0 0 324 153" fill="none" xmlns="http://www.w3.org/2000/svg">
<g filter="url(#filter0_d_2_148)">
<rect x="48" y="24.6929" width="56" height="56" rx="28" fill="#B42AB5"/>
<path fill-rule="evenodd" clip-rule="evenodd" d="M73 46.6929L81 52.6929L73 58.6929V46.6929Z" fill="#FDD400" stroke="#FDD400" stroke-width="2" stroke-linecap="round" stroke-linejoin="round"/>
<path fill-rule="evenodd" clip-rule="evenodd" d="M71 43.6929L83 52.6929L71 61.6929V43.6929Z" fill="white" stroke="white" stroke-width="2" stroke-linecap="round" stroke-linejoin="round"/>
<path d="M132.537 52.7369C132.537 53.7169 132.331 54.5802 131.921 55.3269C131.51 56.0735 130.913 56.6569 130.129 57.0769C129.354 57.4875 128.43 57.6929 127.357 57.6929H123.843V47.8089H127.357C128.43 47.8089 129.354 48.0142 130.129 48.4249C130.913 48.8262 131.51 49.4002 131.921 50.1469C132.331 50.8842 132.537 51.7475 132.537 52.7369ZM127.189 55.9289C128.253 55.9289 129.074 55.6489 129.653 55.0889C130.241 54.5289 130.535 53.7449 130.535 52.7369C130.535 51.7195 130.241 50.9309 129.653 50.3709C129.074 49.8109 128.253 49.5309 127.189 49.5309H125.817V55.9289H127.189ZM133.79 47.7109C133.79 47.3935 133.902 47.1369 134.126 46.9409C134.35 46.7355 134.644 46.6329 135.008 46.6329C135.372 46.6329 135.666 46.7355 135.89 46.9409C136.114 47.1369 136.226 47.3935 136.226 47.7109C136.226 48.0189 136.114 48.2755 135.89 48.4809C135.666 48.6769 135.372 48.7749 135.008 48.7749C134.644 48.7749 134.35 48.6769 134.126 48.4809C133.902 48.2755 133.79 48.0189 133.79 47.7109ZM135.988 49.9369V57.6929H134.014V49.9369H135.988ZM140.448 49.8389C141.391 49.8389 142.147 50.0769 142.716 50.5529C143.286 51.0289 143.64 51.6635 143.78 52.4569H141.932C141.858 52.0835 141.69 51.7849 141.428 51.5609C141.167 51.3369 140.826 51.2249 140.406 51.2249C140.07 51.2249 139.809 51.3042 139.622 51.4629C139.436 51.6215 139.342 51.8362 139.342 52.1069C139.342 52.3215 139.417 52.4942 139.566 52.6249C139.716 52.7555 139.902 52.8582 140.126 52.9329C140.35 53.0075 140.672 53.0962 141.092 53.1989C141.68 53.3295 142.156 53.4695 142.52 53.6189C142.894 53.7589 143.211 53.9875 143.472 54.3049C143.743 54.6129 143.878 55.0329 143.878 55.5649C143.878 56.2275 143.617 56.7642 143.094 57.1749C142.581 57.5855 141.886 57.7909 141.008 57.7909C140 57.7909 139.193 57.5669 138.586 57.1189C137.98 56.6615 137.611 56.0129 137.48 55.1729H139.37C139.417 55.5555 139.585 55.8589 139.874 56.0829C140.164 56.2975 140.542 56.4049 141.008 56.4049C141.344 56.4049 141.601 56.3255 141.778 56.1669C141.956 55.9989 142.044 55.7842 142.044 55.5229C142.044 55.2989 141.965 55.1169 141.806 54.9769C141.657 54.8369 141.466 54.7295 141.232 54.6549C141.008 54.5802 140.686 54.4915 140.266 54.3889C139.688 54.2582 139.216 54.1275 138.852 53.9969C138.498 53.8569 138.19 53.6375 137.928 53.3389C137.676 53.0402 137.55 52.6295 137.55 52.1069C137.55 51.4349 137.807 50.8889 138.32 50.4689C138.834 50.0489 139.543 49.8389 140.448 49.8389ZM148.834 49.8389C149.833 49.8389 150.664 50.1095 151.326 50.6509C151.998 51.1922 152.418 51.9295 152.586 52.8629H150.5C150.416 52.4522 150.225 52.1302 149.926 51.8969C149.628 51.6542 149.25 51.5329 148.792 51.5329C148.27 51.5329 147.831 51.7289 147.476 52.1209C147.131 52.5035 146.958 53.0682 146.958 53.8149C146.958 54.5615 147.131 55.1309 147.476 55.5229C147.831 55.9055 148.27 56.0969 148.792 56.0969C149.25 56.0969 149.628 55.9802 149.926 55.7469C150.225 55.5042 150.416 55.1775 150.5 54.7669H152.586C152.418 55.7002 151.998 56.4375 151.326 56.9789C150.664 57.5202 149.833 57.7909 148.834 57.7909C148.078 57.7909 147.406 57.6322 146.818 57.3149C146.23 56.9882 145.773 56.5262 145.446 55.9289C145.12 55.3315 144.956 54.6269 144.956 53.8149C144.956 53.0029 145.12 52.2982 145.446 51.7009C145.773 51.0942 146.23 50.6322 146.818 50.3149C147.406 49.9975 148.078 49.8389 148.834 49.8389ZM157.573 49.8389C158.329 49.8389 159.006 49.9975 159.603 50.3149C160.21 50.6322 160.686 51.0942 161.031 51.7009C161.376 52.2982 161.549 53.0029 161.549 53.8149C161.549 54.6269 161.376 55.3315 161.031 55.9289C160.686 56.5262 160.21 56.9882 159.603 57.3149C159.006 57.6322 158.329 57.7909 157.573 57.7909C156.817 57.7909 156.136 57.6322 155.529 57.3149C154.932 56.9882 154.46 56.5262 154.115 55.9289C153.77 55.3315 153.597 54.6269 153.597 53.8149C153.597 53.0029 153.77 52.2982 154.115 51.7009C154.46 51.0942 154.932 50.6322 155.529 50.3149C156.136 49.9975 156.817 49.8389 157.573 49.8389ZM157.573 51.5469C157.022 51.5469 156.556 51.7429 156.173 52.1349C155.79 52.5175 155.599 53.0775 155.599 53.8149C155.599 54.5522 155.79 55.1169 156.173 55.5089C156.556 55.8915 157.022 56.0829 157.573 56.0829C158.124 56.0829 158.59 55.8915 158.973 55.5089C159.356 55.1169 159.547 54.5522 159.547 53.8149C159.547 53.0775 159.356 52.5175 158.973 52.1349C158.59 51.7429 158.124 51.5469 157.573 51.5469ZM166.318 55.7189L168.278 49.9369H170.378L167.508 57.6929H165.1L162.23 49.9369H164.344L166.318 55.7189ZM178.769 53.5209C178.769 53.7169 178.746 53.9409 178.699 54.1929H173.015C173.043 54.8835 173.23 55.3922 173.575 55.7189C173.921 56.0455 174.35 56.2089 174.863 56.2089C175.321 56.2089 175.699 56.0969 175.997 55.8729C176.305 55.6489 176.501 55.3455 176.585 54.9629H178.671C178.569 55.5042 178.349 55.9895 178.013 56.4189C177.677 56.8482 177.243 57.1842 176.711 57.4269C176.189 57.6695 175.605 57.7909 174.961 57.7909C174.205 57.7909 173.533 57.6322 172.945 57.3149C172.357 56.9882 171.9 56.5262 171.573 55.9289C171.247 55.3315 171.083 54.6269 171.083 53.8149C171.083 53.0029 171.247 52.2982 171.573 51.7009C171.9 51.0942 172.357 50.6322 172.945 50.3149C173.533 49.9975 174.205 49.8389 174.961 49.8389C175.727 49.8389 176.394 49.9975 176.963 50.3149C177.542 50.6322 177.985 51.0709 178.293 51.6309C178.611 52.1815 178.769 52.8115 178.769 53.5209ZM176.781 53.3249C176.809 52.6902 176.641 52.2095 176.277 51.8829C175.923 51.5562 175.484 51.3929 174.961 51.3929C174.429 51.3929 173.981 51.5562 173.617 51.8829C173.253 52.2095 173.053 52.6902 173.015 53.3249H176.781ZM182.145 51.4209C182.434 50.9262 182.817 50.5389 183.293 50.2589C183.769 49.9695 184.301 49.8249 184.889 49.8249V51.9389H184.315C182.868 51.9389 182.145 52.6109 182.145 53.9549V57.6929H180.171V49.9369H182.145V51.4209ZM193.65 49.8249C194.546 49.8249 195.26 50.1189 195.792 50.7069C196.324 51.2949 196.59 52.1209 196.59 53.1849V57.6929H194.63V53.4089C194.63 52.7929 194.471 52.3169 194.154 51.9809C193.837 51.6355 193.403 51.4629 192.852 51.4629C192.292 51.4629 191.844 51.6449 191.508 52.0089C191.172 52.3729 191.004 52.8955 191.004 53.5769V57.6929H189.03V49.9369H191.004V51.4909C191.209 50.9682 191.545 50.5622 192.012 50.2729C192.488 49.9742 193.034 49.8249 193.65 49.8249ZM201.911 49.8389C202.667 49.8389 203.344 49.9975 203.941 50.3149C204.548 50.6322 205.024 51.0942 205.369 51.7009C205.714 52.2982 205.887 53.0029 205.887 53.8149C205.887 54.6269 205.714 55.3315 205.369 55.9289C205.024 56.5262 204.548 56.9882 203.941 57.3149C203.344 57.6322 202.667 57.7909 201.911 57.7909C201.155 57.7909 200.474 57.6322 199.867 57.3149C199.27 56.9882 198.798 56.5262 198.453 55.9289C198.108 55.3315 197.935 54.6269 197.935 53.8149C197.935 53.0029 198.108 52.2982 198.453 51.7009C198.798 51.0942 199.27 50.6322 199.867 50.3149C200.474 49.9975 201.155 49.8389 201.911 49.8389ZM201.911 51.5469C201.36 51.5469 200.894 51.7429 200.511 52.1349C200.128 52.5175 199.937 53.0775 199.937 53.8149C199.937 54.5522 200.128 55.1169 200.511 55.5089C200.894 55.8915 201.36 56.0829 201.911 56.0829C202.462 56.0829 202.928 55.8915 203.311 55.5089C203.694 55.1169 203.885 54.5522 203.885 53.8149C203.885 53.0775 203.694 52.5175 203.311 52.1349C202.928 51.7429 202.462 51.5469 201.911 51.5469ZM218.384 49.9369L216.298 57.6929H214.114L212.448 52.0509L210.74 57.6929H208.556L206.484 49.9369H208.458L209.718 55.9289L211.44 49.9369H213.526L215.262 55.9289L216.536 49.9369H218.384Z" fill="#B42AB5"/>
</g>
<defs>
<filter id="filter0_d_2_148" x="0" y="0.692871" width="266.384" height="152" filterUnits="userSpaceOnUse" color-interpolation-filters="sRGB">
<feFlood flood-opacity="0" result="BackgroundImageFix"/>
<feColorMatrix in="SourceAlpha" type="matrix" values="0 0 0 0 0 0 0 0 0 0 0 0 0 0 0 0 0 0 127 0" result="hardAlpha"/>
<feOffset dy="24"/>
<feGaussianBlur stdDeviation="24"/>
<feColorMatrix type="matrix" values="0 0 0 0 0.388235 0 0 0 0 0.235294 0 0 0 0 0.968627 0 0 0 0.15 0"/>
<feBlend mode="normal" in2="BackgroundImageFix" result="effect1_dropShadow_2_148"/>
<feBlend mode="normal" in="SourceGraphic" in2="effect1_dropShadow_2_148" result="shape"/>
</filter>
</defs>
</svg>
